# xmcd
#
# Track frame offsets:
#	150
#	20700
#	33192
#	53472
#	70635
#	102105
#	127305
#	148847
#	166752
#	201480
#
# Disc length: 2850 seconds
#
# Revision: 1
# Processed by: cddbd v1.5.2PL0 Copyright (c) Steve Scherf et al.
# Submitted via: audiograbber 1.83.01
#
DISCID=8a0b200a
DTITLE=Chris Farlowe - From Here to Mama Rosa
DYEAR=1970
DGENRE=
TTITLE0=TRAVELLING INTO MAKE BELIEVE
TTITLE1=FIFTY YEARS
TTITLE2=WHERE DO WE GO FROM HERE
TTITLE3=QUESTIONS
TTITLE4=HEAD IN THE CLOUDS
TTITLE5=ARE YOU SLEEPING
TTITLE6=BLACK SHEEP
TTITLE7=WINTER OF MY LIFE
TTITLE8=MAMA ROSA
TTITLE9=PUT OUT THE LIGHT
EXTD=
EXTT0=
EXTT1=
EXTT2=
EXTT3=
EXTT4=
EXTT5=
EXTT6=
EXTT7=
EXTT8=
EXTT9=
PLAYORDER=
